<svg width="704" height="86" viewBox="0 0 704 86" fill="none" xmlns="http://www.w3.org/2000/svg">
<path fill-rule="evenodd" clip-rule="evenodd" d="M10 10.8861C10 8.48025 8.21 6.53165 6 6.53165C2.686 6.53165 0 3.60765 0 0H2C2 2.40582 3.79 4.35443 6 4.35443C9.314 4.35443 12 7.27843 12 10.8861C12 13.2919 13.79 15.2405 16 15.2405C19.314 15.2405 22 18.1645 22 21.7722C22 24.178 23.79 26.1266 26 26.1266V28.3038C22.686 28.3038 20 25.3798 20 21.7722C20 19.3663 18.21 17.4177 16 17.4177C12.686 17.4177 10 14.4937 10 10.8861ZM35.464 8.76329L43.95 18.0012L42.536 19.5405L34.05 10.3026L35.464 8.76329Z" fill="white" fill-opacity="0.06"/>
<path fill-rule="evenodd" clip-rule="evenodd" d="M10 39.1899C10 36.7841 8.21 34.8354 6 34.8354C2.686 34.8354 0 31.9114 0 28.3038H2C2 30.7096 3.79 32.6582 6 32.6582C9.314 32.6582 12 35.5822 12 39.1899C12 41.5957 13.79 43.5443 16 43.5443C19.314 43.5443 22 46.4683 22 50.076C22 52.4818 23.79 54.4304 26 54.4304V56.6076C22.686 56.6076 20 53.6836 20 50.076C20 47.6701 18.21 45.7215 16 45.7215C12.686 45.7215 10 42.7975 10 39.1899ZM35.464 37.0671L43.95 46.305L42.536 47.8443L34.05 38.6064L35.464 37.0671Z" fill="white" fill-opacity="0.06"/>
<path fill-rule="evenodd" clip-rule="evenodd" d="M10 68.5823C10 66.1765 8.21 64.2279 6 64.2279C2.686 64.2279 0 61.3039 0 57.6962H2C2 60.102 3.79 62.0506 6 62.0506C9.314 62.0506 12 64.9746 12 68.5823C12 70.9881 13.79 72.9367 16 72.9367C19.314 72.9367 22 75.8607 22 79.4684C22 81.8742 23.79 83.8228 26 83.8228V86C22.686 86 20 83.076 20 79.4684C20 77.0625 18.21 75.1139 16 75.1139C12.686 75.1139 10 72.1899 10 68.5823ZM35.464 66.4595L43.95 75.6974L42.536 77.2367L34.05 67.9988L35.464 66.4595Z" fill="white" fill-opacity="0.06"/>
<path fill-rule="evenodd" clip-rule="evenodd" d="M64.9502 39.1899C64.9502 36.7841 63.1602 34.8354 60.9502 34.8354C57.6362 34.8354 54.9502 31.9114 54.9502 28.3038H56.9502C56.9502 30.7096 58.7402 32.6582 60.9502 32.6582C64.2642 32.6582 66.9502 35.5822 66.9502 39.1899C66.9502 41.5957 68.7402 43.5443 70.9502 43.5443C74.2642 43.5443 76.9502 46.4683 76.9502 50.076C76.9502 52.4818 78.7402 54.4304 80.9502 54.4304V56.6076C77.6362 56.6076 74.9502 53.6836 74.9502 50.076C74.9502 47.6701 73.1602 45.7215 70.9502 45.7215C67.6362 45.7215 64.9502 42.7975 64.9502 39.1899ZM90.4142 37.0671L98.9002 46.305L97.4862 47.8443L89.0002 38.6064L90.4142 37.0671Z" fill="white" fill-opacity="0.06"/>
<path fill-rule="evenodd" clip-rule="evenodd" d="M64.9502 68.5823C64.9502 66.1765 63.1602 64.2279 60.9502 64.2279C57.6362 64.2279 54.9502 61.3039 54.9502 57.6962H56.9502C56.9502 60.102 58.7402 62.0506 60.9502 62.0506C64.2642 62.0506 66.9502 64.9746 66.9502 68.5823C66.9502 70.9881 68.7402 72.9367 70.9502 72.9367C74.2642 72.9367 76.9502 75.8607 76.9502 79.4684C76.9502 81.8742 78.7402 83.8228 80.9502 83.8228V86C77.6362 86 74.9502 83.076 74.9502 79.4684C74.9502 77.0625 73.1602 75.1139 70.9502 75.1139C67.6362 75.1139 64.9502 72.1899 64.9502 68.5823ZM90.4142 66.4595L98.9002 75.6974L97.4862 77.2367L89.0002 67.9988L90.4142 66.4595Z" fill="white" fill-opacity="0.06"/>
<path fill-rule="evenodd" clip-rule="evenodd" d="M119.9 39.1899C119.9 36.7841 118.11 34.8354 115.9 34.8354C112.586 34.8354 109.9 31.9114 109.9 28.3038H111.9C111.9 30.7096 113.69 32.6582 115.9 32.6582C119.214 32.6582 121.9 35.5822 121.9 39.1899C121.9 41.5957 123.69 43.5443 125.9 43.5443C129.214 43.5443 131.9 46.4683 131.9 50.076C131.9 52.4818 133.69 54.4304 135.9 54.4304V56.6076C132.586 56.6076 129.9 53.6836 129.9 50.076C129.9 47.6701 128.11 45.7215 125.9 45.7215C122.586 45.7215 119.9 42.7975 119.9 39.1899ZM145.364 37.0671L153.85 46.305L152.436 47.8443L143.95 38.6064L145.364 37.0671Z" fill="white" fill-opacity="0.06"/>
<path fill-rule="evenodd" clip-rule="evenodd" d="M119.9 68.5823C119.9 66.1765 118.11 64.2279 115.9 64.2279C112.586 64.2279 109.9 61.3039 109.9 57.6962H111.9C111.9 60.102 113.69 62.0506 115.9 62.0506C119.214 62.0506 121.9 64.9746 121.9 68.5823C121.9 70.9881 123.69 72.9367 125.9 72.9367C129.214 72.9367 131.9 75.8607 131.9 79.4684C131.9 81.8742 133.69 83.8228 135.9 83.8228V86C132.586 86 129.9 83.076 129.9 79.4684C129.9 77.0625 128.11 75.1139 125.9 75.1139C122.586 75.1139 119.9 72.1899 119.9 68.5823ZM145.364 66.4595L153.85 75.6974L152.436 77.2367L143.95 67.9988L145.364 66.4595Z" fill="white" fill-opacity="0.06"/>
<path fill-rule="evenodd" clip-rule="evenodd" d="M174.851 39.1899C174.851 36.7841 173.061 34.8354 170.851 34.8354C167.537 34.8354 164.851 31.9114 164.851 28.3038H166.851C166.851 30.7096 168.641 32.6582 170.851 32.6582C174.165 32.6582 176.851 35.5822 176.851 39.1899C176.851 41.5957 178.641 43.5443 180.851 43.5443C184.165 43.5443 186.851 46.4683 186.851 50.076C186.851 52.4818 188.641 54.4304 190.851 54.4304V56.6076C187.537 56.6076 184.851 53.6836 184.851 50.076C184.851 47.6701 183.061 45.7215 180.851 45.7215C177.537 45.7215 174.851 42.7975 174.851 39.1899ZM200.315 37.0671L208.801 46.305L207.387 47.8443L198.901 38.6064L200.315 37.0671Z" fill="white" fill-opacity="0.06"/>
<path fill-rule="evenodd" clip-rule="evenodd" d="M174.851 68.5823C174.851 66.1765 173.061 64.2279 170.851 64.2279C167.537 64.2279 164.851 61.3039 164.851 57.6962H166.851C166.851 60.102 168.641 62.0506 170.851 62.0506C174.165 62.0506 176.851 64.9746 176.851 68.5823C176.851 70.9881 178.641 72.9367 180.851 72.9367C184.165 72.9367 186.851 75.8607 186.851 79.4684C186.851 81.8742 188.641 83.8228 190.851 83.8228V86C187.537 86 184.851 83.076 184.851 79.4684C184.851 77.0625 183.061 75.1139 180.851 75.1139C177.537 75.1139 174.851 72.1899 174.851 68.5823ZM200.315 66.4595L208.801 75.6974L207.387 77.2367L198.901 67.9988L200.315 66.4595Z" fill="white" fill-opacity="0.06"/>
<path fill-rule="evenodd" clip-rule="evenodd" d="M229.801 39.1899C229.801 36.7841 228.011 34.8354 225.801 34.8354C222.487 34.8354 219.801 31.9114 219.801 28.3038H221.801C221.801 30.7096 223.591 32.6582 225.801 32.6582C229.115 32.6582 231.801 35.5822 231.801 39.1899C231.801 41.5957 233.591 43.5443 235.801 43.5443C239.115 43.5443 241.801 46.4683 241.801 50.076C241.801 52.4818 243.591 54.4304 245.801 54.4304V56.6076C242.487 56.6076 239.801 53.6836 239.801 50.076C239.801 47.6701 238.011 45.7215 235.801 45.7215C232.487 45.7215 229.801 42.7975 229.801 39.1899ZM255.265 37.0671L263.751 46.305L262.337 47.8443L253.851 38.6064L255.265 37.0671Z" fill="white" fill-opacity="0.06"/>
<path fill-rule="evenodd" clip-rule="evenodd" d="M229.801 68.5823C229.801 66.1765 228.011 64.2279 225.801 64.2279C222.487 64.2279 219.801 61.3039 219.801 57.6962H221.801C221.801 60.102 223.591 62.0506 225.801 62.0506C229.115 62.0506 231.801 64.9746 231.801 68.5823C231.801 70.9881 233.591 72.9367 235.801 72.9367C239.115 72.9367 241.801 75.8607 241.801 79.4684C241.801 81.8742 243.591 83.8228 245.801 83.8228V86C242.487 86 239.801 83.076 239.801 79.4684C239.801 77.0625 238.011 75.1139 235.801 75.1139C232.487 75.1139 229.801 72.1899 229.801 68.5823ZM255.265 66.4595L263.751 75.6974L262.337 77.2367L253.851 67.9988L255.265 66.4595Z" fill="white" fill-opacity="0.06"/>
<path fill-rule="evenodd" clip-rule="evenodd" d="M284.751 39.1899C284.751 36.7841 282.961 34.8354 280.751 34.8354C277.437 34.8354 274.751 31.9114 274.751 28.3038H276.751C276.751 30.7096 278.541 32.6582 280.751 32.6582C284.065 32.6582 286.751 35.5822 286.751 39.1899C286.751 41.5957 288.541 43.5443 290.751 43.5443C294.065 43.5443 296.751 46.4683 296.751 50.076C296.751 52.4818 298.541 54.4304 300.751 54.4304V56.6076C297.437 56.6076 294.751 53.6836 294.751 50.076C294.751 47.6701 292.961 45.7215 290.751 45.7215C287.437 45.7215 284.751 42.7975 284.751 39.1899ZM310.215 37.0671L318.701 46.305L317.287 47.8443L308.801 38.6064L310.215 37.0671Z" fill="white" fill-opacity="0.06"/>
<path fill-rule="evenodd" clip-rule="evenodd" d="M284.751 68.5823C284.751 66.1765 282.961 64.2279 280.751 64.2279C277.437 64.2279 274.751 61.3039 274.751 57.6962H276.751C276.751 60.102 278.541 62.0506 280.751 62.0506C284.065 62.0506 286.751 64.9746 286.751 68.5823C286.751 70.9881 288.541 72.9367 290.751 72.9367C294.065 72.9367 296.751 75.8607 296.751 79.4684C296.751 81.8742 298.541 83.8228 300.751 83.8228V86C297.437 86 294.751 83.076 294.751 79.4684C294.751 77.0625 292.961 75.1139 290.751 75.1139C287.437 75.1139 284.751 72.1899 284.751 68.5823ZM310.215 66.4595L318.701 75.6974L317.287 77.2367L308.801 67.9988L310.215 66.4595Z" fill="white" fill-opacity="0.06"/>
<path fill-rule="evenodd" clip-rule="evenodd" d="M339.701 39.1899C339.701 36.7841 337.911 34.8354 335.701 34.8354C332.387 34.8354 329.701 31.9114 329.701 28.3038H331.701C331.701 30.7096 333.491 32.6582 335.701 32.6582C339.015 32.6582 341.701 35.5822 341.701 39.1899C341.701 41.5957 343.491 43.5443 345.701 43.5443C349.015 43.5443 351.701 46.4683 351.701 50.076C351.701 52.4818 353.491 54.4304 355.701 54.4304V56.6076C352.387 56.6076 349.701 53.6836 349.701 50.076C349.701 47.6701 347.911 45.7215 345.701 45.7215C342.387 45.7215 339.701 42.7975 339.701 39.1899ZM365.165 37.0671L373.651 46.305L372.237 47.8443L363.751 38.6064L365.165 37.0671Z" fill="white" fill-opacity="0.06"/>
<path fill-rule="evenodd" clip-rule="evenodd" d="M339.701 68.5823C339.701 66.1765 337.911 64.2279 335.701 64.2279C332.387 64.2279 329.701 61.3039 329.701 57.6962H331.701C331.701 60.102 333.491 62.0506 335.701 62.0506C339.015 62.0506 341.701 64.9746 341.701 68.5823C341.701 70.9881 343.491 72.9367 345.701 72.9367C349.015 72.9367 351.701 75.8607 351.701 79.4684C351.701 81.8742 353.491 83.8228 355.701 83.8228V86C352.387 86 349.701 83.076 349.701 79.4684C349.701 77.0625 347.911 75.1139 345.701 75.1139C342.387 75.1139 339.701 72.1899 339.701 68.5823ZM365.165 66.4595L373.651 75.6974L372.237 77.2367L363.751 67.9988L365.165 66.4595Z" fill="white" fill-opacity="0.06"/>
<path fill-rule="evenodd" clip-rule="evenodd" d="M394.651 39.1899C394.651 36.7841 392.861 34.8354 390.651 34.8354C387.337 34.8354 384.651 31.9114 384.651 28.3038H386.651C386.651 30.7096 388.441 32.6582 390.651 32.6582C393.965 32.6582 396.651 35.5822 396.651 39.1899C396.651 41.5957 398.441 43.5443 400.651 43.5443C403.965 43.5443 406.651 46.4683 406.651 50.076C406.651 52.4818 408.441 54.4304 410.651 54.4304V56.6076C407.337 56.6076 404.651 53.6836 404.651 50.076C404.651 47.6701 402.861 45.7215 400.651 45.7215C397.337 45.7215 394.651 42.7975 394.651 39.1899ZM420.115 37.0671L428.601 46.305L427.187 47.8443L418.701 38.6064L420.115 37.0671Z" fill="white" fill-opacity="0.06"/>
<path fill-rule="evenodd" clip-rule="evenodd" d="M394.651 68.5823C394.651 66.1765 392.861 64.2279 390.651 64.2279C387.337 64.2279 384.651 61.3039 384.651 57.6962H386.651C386.651 60.102 388.441 62.0506 390.651 62.0506C393.965 62.0506 396.651 64.9746 396.651 68.5823C396.651 70.9881 398.441 72.9367 400.651 72.9367C403.965 72.9367 406.651 75.8607 406.651 79.4684C406.651 81.8742 408.441 83.8228 410.651 83.8228V86C407.337 86 404.651 83.076 404.651 79.4684C404.651 77.0625 402.861 75.1139 400.651 75.1139C397.337 75.1139 394.651 72.1899 394.651 68.5823ZM420.115 66.4595L428.601 75.6974L427.187 77.2367L418.701 67.9988L420.115 66.4595Z" fill="white" fill-opacity="0.06"/>
<path fill-rule="evenodd" clip-rule="evenodd" d="M449.602 39.1899C449.602 36.7841 447.812 34.8354 445.602 34.8354C442.288 34.8354 439.602 31.9114 439.602 28.3038H441.602C441.602 30.7096 443.392 32.6582 445.602 32.6582C448.916 32.6582 451.602 35.5822 451.602 39.1899C451.602 41.5957 453.392 43.5443 455.602 43.5443C458.916 43.5443 461.602 46.4683 461.602 50.076C461.602 52.4818 463.392 54.4304 465.602 54.4304V56.6076C462.288 56.6076 459.602 53.6836 459.602 50.076C459.602 47.6701 457.812 45.7215 455.602 45.7215C452.288 45.7215 449.602 42.7975 449.602 39.1899ZM475.066 37.0671L483.552 46.305L482.138 47.8443L473.652 38.6064L475.066 37.0671Z" fill="white" fill-opacity="0.06"/>
<path fill-rule="evenodd" clip-rule="evenodd" d="M449.602 68.5823C449.602 66.1765 447.812 64.2279 445.602 64.2279C442.288 64.2279 439.602 61.3039 439.602 57.6962H441.602C441.602 60.102 443.392 62.0506 445.602 62.0506C448.916 62.0506 451.602 64.9746 451.602 68.5823C451.602 70.9881 453.392 72.9367 455.602 72.9367C458.916 72.9367 461.602 75.8607 461.602 79.4684C461.602 81.8742 463.392 83.8228 465.602 83.8228V86C462.288 86 459.602 83.076 459.602 79.4684C459.602 77.0625 457.812 75.1139 455.602 75.1139C452.288 75.1139 449.602 72.1899 449.602 68.5823ZM475.066 66.4595L483.552 75.6974L482.138 77.2367L473.652 67.9988L475.066 66.4595Z" fill="white" fill-opacity="0.06"/>
<path fill-rule="evenodd" clip-rule="evenodd" d="M504.552 39.1899C504.552 36.7841 502.762 34.8354 500.552 34.8354C497.238 34.8354 494.552 31.9114 494.552 28.3038H496.552C496.552 30.7096 498.342 32.6582 500.552 32.6582C503.866 32.6582 506.552 35.5822 506.552 39.1899C506.552 41.5957 508.342 43.5443 510.552 43.5443C513.866 43.5443 516.552 46.4683 516.552 50.076C516.552 52.4818 518.342 54.4304 520.552 54.4304V56.6076C517.238 56.6076 514.552 53.6836 514.552 50.076C514.552 47.6701 512.762 45.7215 510.552 45.7215C507.238 45.7215 504.552 42.7975 504.552 39.1899ZM530.016 37.0671L538.502 46.305L537.088 47.8443L528.602 38.6064L530.016 37.0671Z" fill="white" fill-opacity="0.06"/>
<path fill-rule="evenodd" clip-rule="evenodd" d="M504.552 68.5823C504.552 66.1765 502.762 64.2279 500.552 64.2279C497.238 64.2279 494.552 61.3039 494.552 57.6962H496.552C496.552 60.102 498.342 62.0506 500.552 62.0506C503.866 62.0506 506.552 64.9746 506.552 68.5823C506.552 70.9881 508.342 72.9367 510.552 72.9367C513.866 72.9367 516.552 75.8607 516.552 79.4684C516.552 81.8742 518.342 83.8228 520.552 83.8228V86C517.238 86 514.552 83.076 514.552 79.4684C514.552 77.0625 512.762 75.1139 510.552 75.1139C507.238 75.1139 504.552 72.1899 504.552 68.5823ZM530.016 66.4595L538.502 75.6974L537.088 77.2367L528.602 67.9988L530.016 66.4595Z" fill="white" fill-opacity="0.06"/>
<path fill-rule="evenodd" clip-rule="evenodd" d="M559.502 39.1899C559.502 36.7841 557.712 34.8354 555.502 34.8354C552.188 34.8354 549.502 31.9114 549.502 28.3038H551.502C551.502 30.7096 553.292 32.6582 555.502 32.6582C558.816 32.6582 561.502 35.5822 561.502 39.1899C561.502 41.5957 563.292 43.5443 565.502 43.5443C568.816 43.5443 571.502 46.4683 571.502 50.076C571.502 52.4818 573.292 54.4304 575.502 54.4304V56.6076C572.188 56.6076 569.502 53.6836 569.502 50.076C569.502 47.6701 567.712 45.7215 565.502 45.7215C562.188 45.7215 559.502 42.7975 559.502 39.1899ZM584.966 37.0671L593.452 46.305L592.038 47.8443L583.552 38.6064L584.966 37.0671Z" fill="white" fill-opacity="0.06"/>
<path fill-rule="evenodd" clip-rule="evenodd" d="M559.502 68.5823C559.502 66.1765 557.712 64.2279 555.502 64.2279C552.188 64.2279 549.502 61.3039 549.502 57.6962H551.502C551.502 60.102 553.292 62.0506 555.502 62.0506C558.816 62.0506 561.502 64.9746 561.502 68.5823C561.502 70.9881 563.292 72.9367 565.502 72.9367C568.816 72.9367 571.502 75.8607 571.502 79.4684C571.502 81.8742 573.292 83.8228 575.502 83.8228V86C572.188 86 569.502 83.076 569.502 79.4684C569.502 77.0625 567.712 75.1139 565.502 75.1139C562.188 75.1139 559.502 72.1899 559.502 68.5823ZM584.966 66.4595L593.452 75.6974L592.038 77.2367L583.552 67.9988L584.966 66.4595Z" fill="white" fill-opacity="0.06"/>
<path fill-rule="evenodd" clip-rule="evenodd" d="M614.453 39.1899C614.453 36.7841 612.663 34.8354 610.453 34.8354C607.139 34.8354 604.453 31.9114 604.453 28.3038H606.453C606.453 30.7096 608.243 32.6582 610.453 32.6582C613.767 32.6582 616.453 35.5822 616.453 39.1899C616.453 41.5957 618.243 43.5443 620.453 43.5443C623.767 43.5443 626.453 46.4683 626.453 50.076C626.453 52.4818 628.243 54.4304 630.453 54.4304V56.6076C627.139 56.6076 624.453 53.6836 624.453 50.076C624.453 47.6701 622.663 45.7215 620.453 45.7215C617.139 45.7215 614.453 42.7975 614.453 39.1899ZM639.917 37.0671L648.403 46.305L646.989 47.8443L638.503 38.6064L639.917 37.0671Z" fill="white" fill-opacity="0.06"/>
<path fill-rule="evenodd" clip-rule="evenodd" d="M614.453 68.5823C614.453 66.1765 612.663 64.2279 610.453 64.2279C607.139 64.2279 604.453 61.3039 604.453 57.6962H606.453C606.453 60.102 608.243 62.0506 610.453 62.0506C613.767 62.0506 616.453 64.9746 616.453 68.5823C616.453 70.9881 618.243 72.9367 620.453 72.9367C623.767 72.9367 626.453 75.8607 626.453 79.4684C626.453 81.8742 628.243 83.8228 630.453 83.8228V86C627.139 86 624.453 83.076 624.453 79.4684C624.453 77.0625 622.663 75.1139 620.453 75.1139C617.139 75.1139 614.453 72.1899 614.453 68.5823ZM639.917 66.4595L648.403 75.6974L646.989 77.2367L638.503 67.9988L639.917 66.4595Z" fill="white" fill-opacity="0.06"/>
<path fill-rule="evenodd" clip-rule="evenodd" d="M669.402 39.1899C669.402 36.7841 667.612 34.8354 665.402 34.8354C662.088 34.8354 659.402 31.9114 659.402 28.3038H661.402C661.402 30.7096 663.192 32.6582 665.402 32.6582C668.716 32.6582 671.402 35.5822 671.402 39.1899C671.402 41.5957 673.192 43.5443 675.402 43.5443C678.716 43.5443 681.402 46.4683 681.402 50.076C681.402 52.4818 683.192 54.4304 685.402 54.4304V56.6076C682.088 56.6076 679.402 53.6836 679.402 50.076C679.402 47.6701 677.612 45.7215 675.402 45.7215C672.088 45.7215 669.402 42.7975 669.402 39.1899ZM694.866 37.0671L703.352 46.305L701.938 47.8443L693.452 38.6064L694.866 37.0671Z" fill="white" fill-opacity="0.06"/>
<path fill-rule="evenodd" clip-rule="evenodd" d="M669.402 68.5823C669.402 66.1765 667.612 64.2279 665.402 64.2279C662.088 64.2279 659.402 61.3039 659.402 57.6962H661.402C661.402 60.102 663.192 62.0506 665.402 62.0506C668.716 62.0506 671.402 64.9746 671.402 68.5823C671.402 70.9881 673.192 72.9367 675.402 72.9367C678.716 72.9367 681.402 75.8607 681.402 79.4684C681.402 81.8742 683.192 83.8228 685.402 83.8228V86C682.088 86 679.402 83.076 679.402 79.4684C679.402 77.0625 677.612 75.1139 675.402 75.1139C672.088 75.1139 669.402 72.1899 669.402 68.5823ZM694.866 66.4595L703.352 75.6974L701.938 77.2367L693.452 67.9988L694.866 66.4595Z" fill="white" fill-opacity="0.06"/>
<path fill-rule="evenodd" clip-rule="evenodd" d="M64.9502 10.8861C64.9502 8.48025 63.1602 6.53165 60.9502 6.53165C57.6362 6.53165 54.9502 3.60765 54.9502 0H56.9502C56.9502 2.40582 58.7402 4.35443 60.9502 4.35443C64.2642 4.35443 66.9502 7.27843 66.9502 10.8861C66.9502 13.2919 68.7402 15.2405 70.9502 15.2405C74.2642 15.2405 76.9502 18.1645 76.9502 21.7722C76.9502 24.178 78.7402 26.1266 80.9502 26.1266V28.3038C77.6362 28.3038 74.9502 25.3798 74.9502 21.7722C74.9502 19.3663 73.1602 17.4177 70.9502 17.4177C67.6362 17.4177 64.9502 14.4937 64.9502 10.8861ZM90.4142 8.76329L98.9002 18.0012L97.4862 19.5405L89.0002 10.3026L90.4142 8.76329Z" fill="white" fill-opacity="0.06"/>
<path fill-rule="evenodd" clip-rule="evenodd" d="M119.9 10.8861C119.9 8.48025 118.11 6.53165 115.9 6.53165C112.586 6.53165 109.9 3.60765 109.9 0H111.9C111.9 2.40582 113.69 4.35443 115.9 4.35443C119.214 4.35443 121.9 7.27843 121.9 10.8861C121.9 13.2919 123.69 15.2405 125.9 15.2405C129.214 15.2405 131.9 18.1645 131.9 21.7722C131.9 24.178 133.69 26.1266 135.9 26.1266V28.3038C132.586 28.3038 129.9 25.3798 129.9 21.7722C129.9 19.3663 128.11 17.4177 125.9 17.4177C122.586 17.4177 119.9 14.4937 119.9 10.8861ZM145.364 8.76329L153.85 18.0012L152.436 19.5405L143.95 10.3026L145.364 8.76329Z" fill="white" fill-opacity="0.06"/>
<path fill-rule="evenodd" clip-rule="evenodd" d="M174.851 10.8861C174.851 8.48025 173.061 6.53165 170.851 6.53165C167.537 6.53165 164.851 3.60765 164.851 0H166.851C166.851 2.40582 168.641 4.35443 170.851 4.35443C174.165 4.35443 176.851 7.27843 176.851 10.8861C176.851 13.2919 178.641 15.2405 180.851 15.2405C184.165 15.2405 186.851 18.1645 186.851 21.7722C186.851 24.178 188.641 26.1266 190.851 26.1266V28.3038C187.537 28.3038 184.851 25.3798 184.851 21.7722C184.851 19.3663 183.061 17.4177 180.851 17.4177C177.537 17.4177 174.851 14.4937 174.851 10.8861ZM200.315 8.76329L208.801 18.0012L207.387 19.5405L198.901 10.3026L200.315 8.76329Z" fill="white" fill-opacity="0.06"/>
<path fill-rule="evenodd" clip-rule="evenodd" d="M229.801 10.8861C229.801 8.48025 228.011 6.53165 225.801 6.53165C222.487 6.53165 219.801 3.60765 219.801 0H221.801C221.801 2.40582 223.591 4.35443 225.801 4.35443C229.115 4.35443 231.801 7.27843 231.801 10.8861C231.801 13.2919 233.591 15.2405 235.801 15.2405C239.115 15.2405 241.801 18.1645 241.801 21.7722C241.801 24.178 243.591 26.1266 245.801 26.1266V28.3038C242.487 28.3038 239.801 25.3798 239.801 21.7722C239.801 19.3663 238.011 17.4177 235.801 17.4177C232.487 17.4177 229.801 14.4937 229.801 10.8861ZM255.265 8.76329L263.751 18.0012L262.337 19.5405L253.851 10.3026L255.265 8.76329Z" fill="white" fill-opacity="0.06"/>
<path fill-rule="evenodd" clip-rule="evenodd" d="M284.751 10.8861C284.751 8.48025 282.961 6.53165 280.751 6.53165C277.437 6.53165 274.751 3.60765 274.751 0H276.751C276.751 2.40582 278.541 4.35443 280.751 4.35443C284.065 4.35443 286.751 7.27843 286.751 10.8861C286.751 13.2919 288.541 15.2405 290.751 15.2405C294.065 15.2405 296.751 18.1645 296.751 21.7722C296.751 24.178 298.541 26.1266 300.751 26.1266V28.3038C297.437 28.3038 294.751 25.3798 294.751 21.7722C294.751 19.3663 292.961 17.4177 290.751 17.4177C287.437 17.4177 284.751 14.4937 284.751 10.8861ZM310.215 8.76329L318.701 18.0012L317.287 19.5405L308.801 10.3026L310.215 8.76329Z" fill="white" fill-opacity="0.06"/>
<path fill-rule="evenodd" clip-rule="evenodd" d="M339.701 10.8861C339.701 8.48025 337.911 6.53165 335.701 6.53165C332.387 6.53165 329.701 3.60765 329.701 0H331.701C331.701 2.40582 333.491 4.35443 335.701 4.35443C339.015 4.35443 341.701 7.27843 341.701 10.8861C341.701 13.2919 343.491 15.2405 345.701 15.2405C349.015 15.2405 351.701 18.1645 351.701 21.7722C351.701 24.178 353.491 26.1266 355.701 26.1266V28.3038C352.387 28.3038 349.701 25.3798 349.701 21.7722C349.701 19.3663 347.911 17.4177 345.701 17.4177C342.387 17.4177 339.701 14.4937 339.701 10.8861ZM365.165 8.76329L373.651 18.0012L372.237 19.5405L363.751 10.3026L365.165 8.76329Z" fill="white" fill-opacity="0.06"/>
<path fill-rule="evenodd" clip-rule="evenodd" d="M394.651 10.8861C394.651 8.48025 392.861 6.53165 390.651 6.53165C387.337 6.53165 384.651 3.60765 384.651 0H386.651C386.651 2.40582 388.441 4.35443 390.651 4.35443C393.965 4.35443 396.651 7.27843 396.651 10.8861C396.651 13.2919 398.441 15.2405 400.651 15.2405C403.965 15.2405 406.651 18.1645 406.651 21.7722C406.651 24.178 408.441 26.1266 410.651 26.1266V28.3038C407.337 28.3038 404.651 25.3798 404.651 21.7722C404.651 19.3663 402.861 17.4177 400.651 17.4177C397.337 17.4177 394.651 14.4937 394.651 10.8861ZM420.115 8.76329L428.601 18.0012L427.187 19.5405L418.701 10.3026L420.115 8.76329Z" fill="white" fill-opacity="0.06"/>
<path fill-rule="evenodd" clip-rule="evenodd" d="M449.602 10.8861C449.602 8.48025 447.812 6.53165 445.602 6.53165C442.288 6.53165 439.602 3.60765 439.602 0H441.602C441.602 2.40582 443.392 4.35443 445.602 4.35443C448.916 4.35443 451.602 7.27843 451.602 10.8861C451.602 13.2919 453.392 15.2405 455.602 15.2405C458.916 15.2405 461.602 18.1645 461.602 21.7722C461.602 24.178 463.392 26.1266 465.602 26.1266V28.3038C462.288 28.3038 459.602 25.3798 459.602 21.7722C459.602 19.3663 457.812 17.4177 455.602 17.4177C452.288 17.4177 449.602 14.4937 449.602 10.8861ZM475.066 8.76329L483.552 18.0012L482.138 19.5405L473.652 10.3026L475.066 8.76329Z" fill="white" fill-opacity="0.06"/>
<path fill-rule="evenodd" clip-rule="evenodd" d="M504.552 10.8861C504.552 8.48025 502.762 6.53165 500.552 6.53165C497.238 6.53165 494.552 3.60765 494.552 0H496.552C496.552 2.40582 498.342 4.35443 500.552 4.35443C503.866 4.35443 506.552 7.27843 506.552 10.8861C506.552 13.2919 508.342 15.2405 510.552 15.2405C513.866 15.2405 516.552 18.1645 516.552 21.7722C516.552 24.178 518.342 26.1266 520.552 26.1266V28.3038C517.238 28.3038 514.552 25.3798 514.552 21.7722C514.552 19.3663 512.762 17.4177 510.552 17.4177C507.238 17.4177 504.552 14.4937 504.552 10.8861ZM530.016 8.76329L538.502 18.0012L537.088 19.5405L528.602 10.3026L530.016 8.76329Z" fill="white" fill-opacity="0.06"/>
<path fill-rule="evenodd" clip-rule="evenodd" d="M559.502 10.8861C559.502 8.48025 557.712 6.53165 555.502 6.53165C552.188 6.53165 549.502 3.60765 549.502 0H551.502C551.502 2.40582 553.292 4.35443 555.502 4.35443C558.816 4.35443 561.502 7.27843 561.502 10.8861C561.502 13.2919 563.292 15.2405 565.502 15.2405C568.816 15.2405 571.502 18.1645 571.502 21.7722C571.502 24.178 573.292 26.1266 575.502 26.1266V28.3038C572.188 28.3038 569.502 25.3798 569.502 21.7722C569.502 19.3663 567.712 17.4177 565.502 17.4177C562.188 17.4177 559.502 14.4937 559.502 10.8861ZM584.966 8.76329L593.452 18.0012L592.038 19.5405L583.552 10.3026L584.966 8.76329Z" fill="white" fill-opacity="0.06"/>
<path fill-rule="evenodd" clip-rule="evenodd" d="M614.453 10.8861C614.453 8.48025 612.663 6.53165 610.453 6.53165C607.139 6.53165 604.453 3.60765 604.453 0H606.453C606.453 2.40582 608.243 4.35443 610.453 4.35443C613.767 4.35443 616.453 7.27843 616.453 10.8861C616.453 13.2919 618.243 15.2405 620.453 15.2405C623.767 15.2405 626.453 18.1645 626.453 21.7722C626.453 24.178 628.243 26.1266 630.453 26.1266V28.3038C627.139 28.3038 624.453 25.3798 624.453 21.7722C624.453 19.3663 622.663 17.4177 620.453 17.4177C617.139 17.4177 614.453 14.4937 614.453 10.8861ZM639.917 8.76329L648.403 18.0012L646.989 19.5405L638.503 10.3026L639.917 8.76329Z" fill="white" fill-opacity="0.06"/>
<path fill-rule="evenodd" clip-rule="evenodd" d="M669.402 10.8861C669.402 8.48025 667.612 6.53165 665.402 6.53165C662.088 6.53165 659.402 3.60765 659.402 0H661.402C661.402 2.40582 663.192 4.35443 665.402 4.35443C668.716 4.35443 671.402 7.27843 671.402 10.8861C671.402 13.2919 673.192 15.2405 675.402 15.2405C678.716 15.2405 681.402 18.1645 681.402 21.7722C681.402 24.178 683.192 26.1266 685.402 26.1266V28.3038C682.088 28.3038 679.402 25.3798 679.402 21.7722C679.402 19.3663 677.612 17.4177 675.402 17.4177C672.088 17.4177 669.402 14.4937 669.402 10.8861ZM694.866 8.76329L703.352 18.0012L701.938 19.5405L693.452 10.3026L694.866 8.76329Z" fill="white" fill-opacity="0.06"/>
</svg>
